<svg width="439" height="98" viewBox="0 0 439 98" fill="none" xmlns="http://www.w3.org/2000/svg">
<path d="M83.25 64V39.2H88.9L89.4 43.4C90.1667 41.9333 91.2667 40.7667 92.7 39.9C94.1667 39.0333 95.8833 38.6 97.85 38.6C100.917 38.6 103.3 39.5667 105 41.5C106.7 43.4333 107.55 46.2667 107.55 50V64H101.15V50.6C101.15 48.4667 100.717 46.8333 99.85 45.7C98.9833 44.5667 97.6333 44 95.8 44C94 44 92.5167 44.6333 91.35 45.9C90.2167 47.1667 89.65 48.9333 89.65 51.2V64H83.25ZM122.97 64.6C119.87 64.6 117.47 63.6333 115.77 61.7C114.103 59.7667 113.27 56.9333 113.27 53.2V39.2H119.62V52.6C119.62 54.7333 120.053 56.3667 120.92 57.5C121.787 58.6333 123.153 59.2 125.02 59.2C126.787 59.2 128.237 58.5667 129.37 57.3C130.537 56.0333 131.12 54.2667 131.12 52V39.2H137.52V64H131.87L131.37 59.8C130.603 61.2667 129.487 62.4333 128.02 63.3C126.587 64.1667 124.903 64.6 122.97 64.6ZM141.74 64L150.74 51.6L141.74 39.2H148.59L154.89 48L161.14 39.2H168.04L158.99 51.6L168.04 64H161.14L154.89 55.2L148.59 64H141.74ZM183.167 64C180.567 64 178.484 63.3667 176.917 62.1C175.351 60.8333 174.567 58.5833 174.567 55.35V44.55H170.317V39.2H174.567L175.317 32.55H180.967V39.2H187.667V44.55H180.967V55.4C180.967 56.6 181.217 57.4333 181.717 57.9C182.251 58.3333 183.151 58.55 184.417 58.55H187.517V64H183.167ZM191.062 69.55L203.562 25.15H209.812L197.262 69.55H191.062Z" fill="black"/>
<path d="M225.257 64C222.657 64 220.574 63.3667 219.007 62.1C217.44 60.8333 216.657 58.5833 216.657 55.35V44.55H212.407V39.2H216.657L217.407 32.55H223.057V39.2H229.757V44.55H223.057V55.4C223.057 56.6 223.307 57.4333 223.807 57.9C224.34 58.3333 225.24 58.55 226.507 58.55H229.607V64H225.257ZM246.667 64.6C244.167 64.6 241.951 64.0667 240.017 63C238.084 61.9333 236.567 60.4333 235.467 58.5C234.367 56.5667 233.817 54.3333 233.817 51.8C233.817 49.2333 234.351 46.95 235.417 44.95C236.517 42.95 238.017 41.4 239.917 40.3C241.851 39.1667 244.117 38.6 246.717 38.6C249.151 38.6 251.301 39.1333 253.167 40.2C255.034 41.2667 256.484 42.7333 257.517 44.6C258.584 46.4333 259.117 48.4833 259.117 50.75C259.117 51.1167 259.101 51.5 259.067 51.9C259.067 52.3 259.051 52.7167 259.017 53.15H240.167C240.301 55.0833 240.967 56.6 242.167 57.7C243.401 58.8 244.884 59.35 246.617 59.35C247.917 59.35 249.001 59.0667 249.867 58.5C250.767 57.9 251.434 57.1333 251.867 56.2H258.367C257.901 57.7667 257.117 59.2 256.017 60.5C254.951 61.7667 253.617 62.7667 252.017 63.5C250.451 64.2333 248.667 64.6 246.667 64.6ZM246.717 43.8C245.151 43.8 243.767 44.25 242.567 45.15C241.367 46.0167 240.601 47.35 240.267 49.15H252.617C252.517 47.5167 251.917 46.2167 250.817 45.25C249.717 44.2833 248.351 43.8 246.717 43.8ZM274.75 64.6C272.55 64.6 270.617 64.25 268.95 63.55C267.283 62.8167 265.95 61.8167 264.95 60.55C263.95 59.2833 263.35 57.8167 263.15 56.15H269.6C269.8 57.1167 270.333 57.95 271.2 58.65C272.1 59.3167 273.25 59.65 274.65 59.65C276.05 59.65 277.067 59.3667 277.7 58.8C278.367 58.2333 278.7 57.5833 278.7 56.85C278.7 55.7833 278.233 55.0667 277.3 54.7C276.367 54.3 275.067 53.9167 273.4 53.55C272.333 53.3167 271.25 53.0333 270.15 52.7C269.05 52.3667 268.033 51.95 267.1 51.45C266.2 50.9167 265.467 50.25 264.9 49.45C264.333 48.6167 264.05 47.6 264.05 46.4C264.05 44.2 264.917 42.35 266.65 40.85C268.417 39.35 270.883 38.6 274.05 38.6C276.983 38.6 279.317 39.2833 281.05 40.65C282.817 42.0167 283.867 43.9 284.2 46.3H278.15C277.783 44.4667 276.4 43.55 274 43.55C272.8 43.55 271.867 43.7833 271.2 44.25C270.567 44.7167 270.25 45.3 270.25 46C270.25 46.7333 270.733 47.3167 271.7 47.75C272.667 48.1833 273.95 48.5833 275.55 48.95C277.283 49.35 278.867 49.8 280.3 50.3C281.767 50.7667 282.933 51.4833 283.8 52.45C284.667 53.3833 285.1 54.7333 285.1 56.5C285.133 58.0333 284.733 59.4167 283.9 60.65C283.067 61.8833 281.867 62.85 280.3 63.55C278.733 64.25 276.883 64.6 274.75 64.6ZM301.038 64C298.438 64 296.355 63.3667 294.788 62.1C293.222 60.8333 292.438 58.5833 292.438 55.35V44.55H288.188V39.2H292.438L293.188 32.55H298.838V39.2H305.538V44.55H298.838V55.4C298.838 56.6 299.088 57.4333 299.588 57.9C300.122 58.3333 301.022 58.55 302.288 58.55H305.388V64H301.038ZM310.483 52.2V46.85H331.433V52.2H310.483ZM346.7 64.6C343.6 64.6 341.2 63.6333 339.5 61.7C337.834 59.7667 337 56.9333 337 53.2V39.2H343.35V52.6C343.35 54.7333 343.784 56.3667 344.65 57.5C345.517 58.6333 346.884 59.2 348.75 59.2C350.517 59.2 351.967 58.5667 353.1 57.3C354.267 56.0333 354.85 54.2667 354.85 52V39.2H361.25V64H355.6L355.1 59.8C354.334 61.2667 353.217 62.4333 351.75 63.3C350.317 64.1667 348.634 64.6 346.7 64.6ZM378.87 64C376.27 64 374.187 63.3667 372.62 62.1C371.054 60.8333 370.27 58.5833 370.27 55.35V44.55H366.02V39.2H370.27L371.02 32.55H376.67V39.2H383.37V44.55H376.67V55.4C376.67 56.6 376.92 57.4333 377.42 57.9C377.954 58.3333 378.854 58.55 380.12 58.55H383.22V64H378.87ZM392.315 35.35C391.149 35.35 390.182 35 389.415 34.3C388.682 33.6 388.315 32.7167 388.315 31.65C388.315 30.5833 388.682 29.7167 389.415 29.05C390.182 28.35 391.149 28 392.315 28C393.482 28 394.432 28.35 395.165 29.05C395.932 29.7167 396.315 30.5833 396.315 31.65C396.315 32.7167 395.932 33.6 395.165 34.3C394.432 35 393.482 35.35 392.315 35.35ZM389.115 64V39.2H395.515V64H389.115ZM402.195 64V28H408.595V64H402.195ZM425.385 64.6C423.185 64.6 421.251 64.25 419.585 63.55C417.918 62.8167 416.585 61.8167 415.585 60.55C414.585 59.2833 413.985 57.8167 413.785 56.15H420.235C420.435 57.1167 420.968 57.95 421.835 58.65C422.735 59.3167 423.885 59.65 425.285 59.65C426.685 59.65 427.701 59.3667 428.335 58.8C429.001 58.2333 429.335 57.5833 429.335 56.85C429.335 55.7833 428.868 55.0667 427.935 54.7C427.001 54.3 425.701 53.9167 424.035 53.55C422.968 53.3167 421.885 53.0333 420.785 52.7C419.685 52.3667 418.668 51.95 417.735 51.45C416.835 50.9167 416.101 50.25 415.535 49.45C414.968 48.6167 414.685 47.6 414.685 46.4C414.685 44.2 415.551 42.35 417.285 40.85C419.051 39.35 421.518 38.6 424.685 38.6C427.618 38.6 429.951 39.2833 431.685 40.65C433.451 42.0167 434.501 43.9 434.835 46.3H428.785C428.418 44.4667 427.035 43.55 424.635 43.55C423.435 43.55 422.501 43.7833 421.835 44.25C421.201 44.7167 420.885 45.3 420.885 46C420.885 46.7333 421.368 47.3167 422.335 47.75C423.301 48.1833 424.585 48.5833 426.185 48.95C427.918 49.35 429.501 49.8 430.935 50.3C432.401 50.7667 433.568 51.4833 434.435 52.45C435.301 53.3833 435.735 54.7333 435.735 56.5C435.768 58.0333 435.368 59.4167 434.535 60.65C433.701 61.8833 432.501 62.85 430.935 63.55C429.368 64.25 427.518 64.6 425.385 64.6Z" fill="#00C58E"/>
<rect width="45.0343" height="62.0651" rx="4.51877" transform="matrix(0.845728 -0.533615 0 1 0 24.031)" fill="#108775"/>
<g filter="url(#filter0_d)">
<rect width="39.6913" height="60.2055" rx="4.51877" transform="matrix(0.845728 -0.533615 0 1 10.9742 31.3918)" fill="#019982"/>
</g>
<g filter="url(#filter1_d)">
<rect width="32.9225" height="55.5163" rx="4.51877" transform="matrix(0.845728 -0.533615 0 1 23.2395 38.8707)" fill="#41B38A"/>
</g>
<defs>
<filter id="filter0_d" x="4.51886" y="9.43701" width="43.8966" height="88.0996" filterUnits="userSpaceOnUse" color-interpolation-filters="sRGB">
<feFlood flood-opacity="0" result="BackgroundImageFix"/>
<feColorMatrix in="SourceAlpha" type="matrix" values="0 0 0 0 0 0 0 0 0 0 0 0 0 0 0 0 0 0 127 0"/>
<feOffset dx="-1.29108" dy="2.58216"/>
<feGaussianBlur stdDeviation="2.58216"/>
<feColorMatrix type="matrix" values="0 0 0 0 0 0 0 0 0 0 0 0 0 0 0 0 0 0 0.1 0"/>
<feBlend mode="normal" in2="BackgroundImageFix" result="effect1_dropShadow"/>
<feBlend mode="normal" in="SourceGraphic" in2="effect1_dropShadow" result="shape"/>
</filter>
<filter id="filter1_d" x="15.493" y="17.9456" width="38.1721" height="79.7985" filterUnits="userSpaceOnUse" color-interpolation-filters="sRGB">
<feFlood flood-opacity="0" result="BackgroundImageFix"/>
<feColorMatrix in="SourceAlpha" type="matrix" values="0 0 0 0 0 0 0 0 0 0 0 0 0 0 0 0 0 0 127 0"/>
<feOffset dx="-2.58216"/>
<feGaussianBlur stdDeviation="2.58216"/>
<feColorMatrix type="matrix" values="0 0 0 0 0 0 0 0 0 0 0 0 0 0 0 0 0 0 0.1 0"/>
<feBlend mode="normal" in2="BackgroundImageFix" result="effect1_dropShadow"/>
<feBlend mode="normal" in="SourceGraphic" in2="effect1_dropShadow" result="shape"/>
</filter>
</defs>
</svg>
