<svg width="1280" height="640" viewBox="0 0 1280 640" fill="none" xmlns="http://www.w3.org/2000/svg">
<rect width="1280" height="640" fill="#1A202C"/>
<g filter="url(#filter0_i)">
<path d="M462.306 359.08V368.4H472.466V371.4H462.306V381H473.666V384H458.666V356.08H473.666V359.08H462.306ZM477.814 372.96C477.814 370.72 478.267 368.76 479.174 367.08C480.08 365.373 481.32 364.053 482.894 363.12C484.494 362.187 486.267 361.72 488.214 361.72C490.134 361.72 491.8 362.133 493.214 362.96C494.627 363.787 495.68 364.827 496.374 366.08V362.08H500.054V384H496.374V379.92C495.654 381.2 494.574 382.267 493.134 383.12C491.72 383.947 490.067 384.36 488.174 384.36C486.227 384.36 484.467 383.88 482.894 382.92C481.32 381.96 480.08 380.613 479.174 378.88C478.267 377.147 477.814 375.173 477.814 372.96ZM496.374 373C496.374 371.347 496.04 369.907 495.374 368.68C494.707 367.453 493.8 366.52 492.654 365.88C491.534 365.213 490.294 364.88 488.934 364.88C487.574 364.88 486.334 365.2 485.214 365.84C484.094 366.48 483.2 367.413 482.534 368.64C481.867 369.867 481.534 371.307 481.534 372.96C481.534 374.64 481.867 376.107 482.534 377.36C483.2 378.587 484.094 379.533 485.214 380.2C486.334 380.84 487.574 381.16 488.934 381.16C490.294 381.16 491.534 380.84 492.654 380.2C493.8 379.533 494.707 378.587 495.374 377.36C496.04 376.107 496.374 374.653 496.374 373ZM513.965 384.36C512.285 384.36 510.778 384.08 509.445 383.52C508.112 382.933 507.058 382.133 506.285 381.12C505.512 380.08 505.085 378.893 505.005 377.56H508.765C508.872 378.653 509.378 379.547 510.285 380.24C511.218 380.933 512.432 381.28 513.925 381.28C515.312 381.28 516.405 380.973 517.205 380.36C518.005 379.747 518.405 378.973 518.405 378.04C518.405 377.08 517.978 376.373 517.125 375.92C516.272 375.44 514.952 374.973 513.165 374.52C511.538 374.093 510.205 373.667 509.165 373.24C508.152 372.787 507.272 372.133 506.525 371.28C505.805 370.4 505.445 369.253 505.445 367.84C505.445 366.72 505.778 365.693 506.445 364.76C507.112 363.827 508.058 363.093 509.285 362.56C510.512 362 511.912 361.72 513.485 361.72C515.912 361.72 517.872 362.333 519.365 363.56C520.858 364.787 521.658 366.467 521.765 368.6H518.125C518.045 367.453 517.578 366.533 516.725 365.84C515.898 365.147 514.778 364.8 513.365 364.8C512.058 364.8 511.018 365.08 510.245 365.64C509.472 366.2 509.085 366.933 509.085 367.84C509.085 368.56 509.312 369.16 509.765 369.64C510.245 370.093 510.832 370.467 511.525 370.76C512.245 371.027 513.232 371.333 514.485 371.68C516.058 372.107 517.338 372.533 518.325 372.96C519.312 373.36 520.152 373.973 520.845 374.8C521.565 375.627 521.938 376.707 521.965 378.04C521.965 379.24 521.632 380.32 520.965 381.28C520.298 382.24 519.352 383 518.125 383.56C516.925 384.093 515.538 384.36 513.965 384.36ZM528.983 358.52C528.29 358.52 527.703 358.28 527.223 357.8C526.743 357.32 526.503 356.733 526.503 356.04C526.503 355.347 526.743 354.76 527.223 354.28C527.703 353.8 528.29 353.56 528.983 353.56C529.65 353.56 530.21 353.8 530.663 354.28C531.143 354.76 531.383 355.347 531.383 356.04C531.383 356.733 531.143 357.32 530.663 357.8C530.21 358.28 529.65 358.52 528.983 358.52ZM530.743 362.08V384H527.103V362.08H530.743ZM540.587 354.4V384H536.947V354.4H540.587ZM565.671 362.08L552.471 394.32H548.711L553.031 383.76L544.191 362.08H548.231L555.111 379.84L561.911 362.08H565.671ZM578.634 373C578.634 370.733 579.087 368.76 579.994 367.08C580.901 365.373 582.154 364.053 583.754 363.12C585.381 362.187 587.234 361.72 589.314 361.72C592.007 361.72 594.221 362.373 595.954 363.68C597.714 364.987 598.874 366.8 599.434 369.12H595.514C595.141 367.787 594.407 366.733 593.314 365.96C592.247 365.187 590.914 364.8 589.314 364.8C587.234 364.8 585.554 365.52 584.274 366.96C582.994 368.373 582.354 370.387 582.354 373C582.354 375.64 582.994 377.68 584.274 379.12C585.554 380.56 587.234 381.28 589.314 381.28C590.914 381.28 592.247 380.907 593.314 380.16C594.381 379.413 595.114 378.347 595.514 376.96H599.434C598.847 379.2 597.674 381 595.914 382.36C594.154 383.693 591.954 384.36 589.314 384.36C587.234 384.36 585.381 383.893 583.754 382.96C582.154 382.027 580.901 380.707 579.994 379C579.087 377.293 578.634 375.293 578.634 373ZM607.931 365.64C608.571 364.387 609.478 363.413 610.651 362.72C611.851 362.027 613.304 361.68 615.011 361.68V365.44H614.051C609.971 365.44 607.931 367.653 607.931 372.08V384H604.291V362.08H607.931V365.64ZM639.213 372.2C639.213 372.893 639.173 373.627 639.093 374.4H621.573C621.706 376.56 622.439 378.253 623.773 379.48C625.133 380.68 626.773 381.28 628.693 381.28C630.266 381.28 631.573 380.92 632.613 380.2C633.679 379.453 634.426 378.467 634.853 377.24H638.773C638.186 379.347 637.013 381.067 635.253 382.4C633.493 383.707 631.306 384.36 628.693 384.36C626.613 384.36 624.746 383.893 623.093 382.96C621.466 382.027 620.186 380.707 619.253 379C618.319 377.267 617.853 375.267 617.853 373C617.853 370.733 618.306 368.747 619.213 367.04C620.119 365.333 621.386 364.027 623.013 363.12C624.666 362.187 626.559 361.72 628.693 361.72C630.773 361.72 632.613 362.173 634.213 363.08C635.813 363.987 637.039 365.24 637.893 366.84C638.773 368.413 639.213 370.2 639.213 372.2ZM635.453 371.44C635.453 370.053 635.146 368.867 634.533 367.88C633.919 366.867 633.079 366.107 632.013 365.6C630.973 365.067 629.813 364.8 628.533 364.8C626.693 364.8 625.119 365.387 623.813 366.56C622.533 367.733 621.799 369.36 621.613 371.44H635.453ZM642.658 372.96C642.658 370.72 643.111 368.76 644.018 367.08C644.924 365.373 646.164 364.053 647.738 363.12C649.338 362.187 651.111 361.72 653.058 361.72C654.978 361.72 656.644 362.133 658.058 362.96C659.471 363.787 660.524 364.827 661.218 366.08V362.08H664.898V384H661.218V379.92C660.498 381.2 659.418 382.267 657.978 383.12C656.564 383.947 654.911 384.36 653.018 384.36C651.071 384.36 649.311 383.88 647.738 382.92C646.164 381.96 644.924 380.613 644.018 378.88C643.111 377.147 642.658 375.173 642.658 372.96ZM661.218 373C661.218 371.347 660.884 369.907 660.218 368.68C659.551 367.453 658.644 366.52 657.498 365.88C656.378 365.213 655.138 364.88 653.778 364.88C652.418 364.88 651.178 365.2 650.058 365.84C648.938 366.48 648.044 367.413 647.378 368.64C646.711 369.867 646.378 371.307 646.378 372.96C646.378 374.64 646.711 376.107 647.378 377.36C648.044 378.587 648.938 379.533 650.058 380.2C651.178 380.84 652.418 381.16 653.778 381.16C655.138 381.16 656.378 380.84 657.498 380.2C658.644 379.533 659.551 378.587 660.218 377.36C660.884 376.107 661.218 374.653 661.218 373ZM675.489 365.08V378C675.489 379.067 675.715 379.827 676.169 380.28C676.622 380.707 677.409 380.92 678.529 380.92H681.209V384H677.929C675.902 384 674.382 383.533 673.369 382.6C672.355 381.667 671.849 380.133 671.849 378V365.08H669.009V362.08H671.849V356.56H675.489V362.08H681.209V365.08H675.489ZM705.619 372.2C705.619 372.893 705.579 373.627 705.499 374.4H687.979C688.112 376.56 688.846 378.253 690.179 379.48C691.539 380.68 693.179 381.28 695.099 381.28C696.672 381.28 697.979 380.92 699.019 380.2C700.086 379.453 700.832 378.467 701.259 377.24H705.179C704.592 379.347 703.419 381.067 701.659 382.4C699.899 383.707 697.712 384.36 695.099 384.36C693.019 384.36 691.152 383.893 689.499 382.96C687.872 382.027 686.592 380.707 685.659 379C684.726 377.267 684.259 375.267 684.259 373C684.259 370.733 684.712 368.747 685.619 367.04C686.526 365.333 687.792 364.027 689.419 363.12C691.072 362.187 692.966 361.72 695.099 361.72C697.179 361.72 699.019 362.173 700.619 363.08C702.219 363.987 703.446 365.24 704.299 366.84C705.179 368.413 705.619 370.2 705.619 372.2ZM701.859 371.44C701.859 370.053 701.552 368.867 700.939 367.88C700.326 366.867 699.486 366.107 698.419 365.6C697.379 365.067 696.219 364.8 694.939 364.8C693.099 364.8 691.526 365.387 690.219 366.56C688.939 367.733 688.206 369.36 688.019 371.44H701.859ZM725.528 365.08V378C725.528 379.067 725.754 379.827 726.208 380.28C726.661 380.707 727.448 380.92 728.568 380.92H731.248V384H727.968C725.941 384 724.421 383.533 723.408 382.6C722.394 381.667 721.888 380.133 721.888 378V365.08H719.048V362.08H721.888V356.56H725.528V362.08H731.248V365.08H725.528ZM755.658 372.2C755.658 372.893 755.618 373.627 755.538 374.4H738.018C738.151 376.56 738.885 378.253 740.218 379.48C741.578 380.68 743.218 381.28 745.138 381.28C746.711 381.28 748.018 380.92 749.058 380.2C750.125 379.453 750.871 378.467 751.298 377.24H755.218C754.631 379.347 753.458 381.067 751.698 382.4C749.938 383.707 747.751 384.36 745.138 384.36C743.058 384.36 741.191 383.893 739.538 382.96C737.911 382.027 736.631 380.707 735.698 379C734.765 377.267 734.298 375.267 734.298 373C734.298 370.733 734.751 368.747 735.658 367.04C736.565 365.333 737.831 364.027 739.458 363.12C741.111 362.187 743.005 361.72 745.138 361.72C747.218 361.72 749.058 362.173 750.658 363.08C752.258 363.987 753.485 365.24 754.338 366.84C755.218 368.413 755.658 370.2 755.658 372.2ZM751.898 371.44C751.898 370.053 751.591 368.867 750.978 367.88C750.365 366.867 749.525 366.107 748.458 365.6C747.418 365.067 746.258 364.8 744.978 364.8C743.138 364.8 741.565 365.387 740.258 366.56C738.978 367.733 738.245 369.36 738.058 371.44H751.898ZM768.223 384.36C766.543 384.36 765.036 384.08 763.703 383.52C762.369 382.933 761.316 382.133 760.543 381.12C759.769 380.08 759.343 378.893 759.263 377.56H763.023C763.129 378.653 763.636 379.547 764.543 380.24C765.476 380.933 766.689 381.28 768.183 381.28C769.569 381.28 770.663 380.973 771.463 380.36C772.263 379.747 772.663 378.973 772.663 378.04C772.663 377.08 772.236 376.373 771.383 375.92C770.529 375.44 769.209 374.973 767.423 374.52C765.796 374.093 764.463 373.667 763.423 373.24C762.409 372.787 761.529 372.133 760.783 371.28C760.063 370.4 759.703 369.253 759.703 367.84C759.703 366.72 760.036 365.693 760.703 364.76C761.369 363.827 762.316 363.093 763.543 362.56C764.769 362 766.169 361.72 767.743 361.72C770.169 361.72 772.129 362.333 773.623 363.56C775.116 364.787 775.916 366.467 776.023 368.6H772.383C772.303 367.453 771.836 366.533 770.983 365.84C770.156 365.147 769.036 364.8 767.623 364.8C766.316 364.8 765.276 365.08 764.503 365.64C763.729 366.2 763.343 366.933 763.343 367.84C763.343 368.56 763.569 369.16 764.023 369.64C764.503 370.093 765.089 370.467 765.783 370.76C766.503 371.027 767.489 371.333 768.743 371.68C770.316 372.107 771.596 372.533 772.583 372.96C773.569 373.36 774.409 373.973 775.103 374.8C775.823 375.627 776.196 376.707 776.223 378.04C776.223 379.24 775.889 380.32 775.223 381.28C774.556 382.24 773.609 383 772.383 383.56C771.183 384.093 769.796 384.36 768.223 384.36ZM785.801 365.08V378C785.801 379.067 786.028 379.827 786.481 380.28C786.935 380.707 787.721 380.92 788.841 380.92H791.521V384H788.241C786.215 384 784.695 383.533 783.681 382.6C782.668 381.667 782.161 380.133 782.161 378V365.08H779.321V362.08H782.161V356.56H785.801V362.08H791.521V365.08H785.801ZM803.692 384.36C802.012 384.36 800.505 384.08 799.172 383.52C797.838 382.933 796.785 382.133 796.012 381.12C795.238 380.08 794.812 378.893 794.732 377.56H798.492C798.598 378.653 799.105 379.547 800.012 380.24C800.945 380.933 802.158 381.28 803.652 381.28C805.038 381.28 806.132 380.973 806.932 380.36C807.732 379.747 808.132 378.973 808.132 378.04C808.132 377.08 807.705 376.373 806.852 375.92C805.998 375.44 804.678 374.973 802.892 374.52C801.265 374.093 799.932 373.667 798.892 373.24C797.878 372.787 796.998 372.133 796.252 371.28C795.532 370.4 795.172 369.253 795.172 367.84C795.172 366.72 795.505 365.693 796.172 364.76C796.838 363.827 797.785 363.093 799.012 362.56C800.238 362 801.638 361.72 803.212 361.72C805.638 361.72 807.598 362.333 809.092 363.56C810.585 364.787 811.385 366.467 811.492 368.6H807.852C807.772 367.453 807.305 366.533 806.452 365.84C805.625 365.147 804.505 364.8 803.092 364.8C801.785 364.8 800.745 365.08 799.972 365.64C799.198 366.2 798.812 366.933 798.812 367.84C798.812 368.56 799.038 369.16 799.492 369.64C799.972 370.093 800.558 370.467 801.252 370.76C801.972 371.027 802.958 371.333 804.212 371.68C805.785 372.107 807.065 372.533 808.052 372.96C809.038 373.36 809.878 373.973 810.572 374.8C811.292 375.627 811.665 376.707 811.692 378.04C811.692 379.24 811.358 380.32 810.692 381.28C810.025 382.24 809.078 383 807.852 383.56C806.652 384.093 805.265 384.36 803.692 384.36ZM373.172 425.08H368.572V444H364.932V425.08H362.092V422.08H364.932V420.52C364.932 418.067 365.559 416.28 366.812 415.16C368.092 414.013 370.132 413.44 372.932 413.44V416.48C371.332 416.48 370.199 416.8 369.532 417.44C368.892 418.053 368.572 419.08 368.572 420.52V422.08H373.172V425.08ZM386.976 444.36C384.923 444.36 383.056 443.893 381.376 442.96C379.723 442.027 378.416 440.707 377.456 439C376.523 437.267 376.056 435.267 376.056 433C376.056 430.76 376.536 428.787 377.496 427.08C378.483 425.347 379.816 424.027 381.496 423.12C383.176 422.187 385.056 421.72 387.136 421.72C389.216 421.72 391.096 422.187 392.776 423.12C394.456 424.027 395.776 425.333 396.736 427.04C397.723 428.747 398.216 430.733 398.216 433C398.216 435.267 397.709 437.267 396.696 439C395.709 440.707 394.363 442.027 392.656 442.96C390.949 443.893 389.056 444.36 386.976 444.36ZM386.976 441.16C388.283 441.16 389.509 440.853 390.656 440.24C391.803 439.627 392.723 438.707 393.416 437.48C394.136 436.253 394.496 434.76 394.496 433C394.496 431.24 394.149 429.747 393.456 428.52C392.763 427.293 391.856 426.387 390.736 425.8C389.616 425.187 388.403 424.88 387.096 424.88C385.763 424.88 384.536 425.187 383.416 425.8C382.323 426.387 381.443 427.293 380.776 428.52C380.109 429.747 379.776 431.24 379.776 433C379.776 434.787 380.096 436.293 380.736 437.52C381.403 438.747 382.283 439.667 383.376 440.28C384.469 440.867 385.669 441.16 386.976 441.16ZM406.642 425.64C407.282 424.387 408.189 423.413 409.362 422.72C410.562 422.027 412.015 421.68 413.722 421.68V425.44H412.762C408.682 425.44 406.642 427.653 406.642 432.08V444H403.002V422.08H406.642V425.64ZM450.508 444H446.868L432.228 421.8V444H428.588V416.08H432.228L446.868 438.24V416.08H450.508V444ZM476.153 422.08V444H472.513V440.76C471.819 441.88 470.846 442.76 469.593 443.4C468.366 444.013 467.006 444.32 465.513 444.32C463.806 444.32 462.273 443.973 460.913 443.28C459.553 442.56 458.473 441.493 457.673 440.08C456.899 438.667 456.513 436.947 456.513 434.92V422.08H460.113V434.44C460.113 436.6 460.659 438.267 461.753 439.44C462.846 440.587 464.339 441.16 466.233 441.16C468.179 441.16 469.713 440.56 470.833 439.36C471.953 438.16 472.513 436.413 472.513 434.12V422.08H476.153ZM493.739 444L488.539 435.84L483.539 444H479.739L486.819 433.12L479.739 422.08H483.859L489.059 430.2L494.019 422.08H497.819L490.779 432.92L497.859 444H493.739ZM505.879 425.08V438C505.879 439.067 506.106 439.827 506.559 440.28C507.013 440.707 507.799 440.92 508.919 440.92H511.599V444H508.319C506.293 444 504.773 443.533 503.759 442.6C502.746 441.667 502.239 440.133 502.239 438V425.08H499.399V422.08H502.239V416.56H505.879V422.08H511.599V425.08H505.879ZM517.17 444.24C516.476 444.24 515.89 444 515.41 443.52C514.93 443.04 514.69 442.453 514.69 441.76C514.69 441.067 514.93 440.48 515.41 440C515.89 439.52 516.476 439.28 517.17 439.28C517.836 439.28 518.396 439.52 518.85 440C519.33 440.48 519.57 441.067 519.57 441.76C519.57 442.453 519.33 443.04 518.85 443.52C518.396 444 517.836 444.24 517.17 444.24ZM526.368 418.52C525.675 418.52 525.088 418.28 524.608 417.8C524.155 417.32 523.928 416.733 523.928 416.04C523.928 415.347 524.155 414.76 524.608 414.28C525.088 413.8 525.675 413.56 526.368 413.56C527.061 413.56 527.635 413.8 528.088 414.28C528.568 414.76 528.808 415.347 528.808 416.04C528.808 416.733 528.568 417.32 528.088 417.8C527.635 418.28 527.061 418.52 526.368 418.52ZM528.168 448.76C528.168 450.707 527.675 452.133 526.688 453.04C525.701 453.947 524.261 454.4 522.368 454.4H520.248V451.32H521.768C522.781 451.32 523.488 451.12 523.888 450.72C524.315 450.32 524.528 449.64 524.528 448.68V422.08H528.168V448.76ZM542.09 444.36C540.41 444.36 538.903 444.08 537.57 443.52C536.237 442.933 535.183 442.133 534.41 441.12C533.637 440.08 533.21 438.893 533.13 437.56H536.89C536.997 438.653 537.503 439.547 538.41 440.24C539.343 440.933 540.557 441.28 542.05 441.28C543.437 441.28 544.53 440.973 545.33 440.36C546.13 439.747 546.53 438.973 546.53 438.04C546.53 437.08 546.103 436.373 545.25 435.92C544.397 435.44 543.077 434.973 541.29 434.52C539.663 434.093 538.33 433.667 537.29 433.24C536.277 432.787 535.397 432.133 534.65 431.28C533.93 430.4 533.57 429.253 533.57 427.84C533.57 426.72 533.903 425.693 534.57 424.76C535.237 423.827 536.183 423.093 537.41 422.56C538.637 422 540.037 421.72 541.61 421.72C544.037 421.72 545.997 422.333 547.49 423.56C548.983 424.787 549.783 426.467 549.89 428.6H546.25C546.17 427.453 545.703 426.533 544.85 425.84C544.023 425.147 542.903 424.8 541.49 424.8C540.183 424.8 539.143 425.08 538.37 425.64C537.597 426.2 537.21 426.933 537.21 427.84C537.21 428.56 537.437 429.16 537.89 429.64C538.37 430.093 538.957 430.467 539.65 430.76C540.37 431.027 541.357 431.333 542.61 431.68C544.183 432.107 545.463 432.533 546.45 432.96C547.437 433.36 548.277 433.973 548.97 434.8C549.69 435.627 550.063 436.707 550.09 438.04C550.09 439.24 549.757 440.32 549.09 441.28C548.423 442.24 547.477 443 546.25 443.56C545.05 444.093 543.663 444.36 542.09 444.36ZM569.533 426.12C570.253 424.867 571.319 423.827 572.733 423C574.173 422.147 575.839 421.72 577.733 421.72C579.679 421.72 581.439 422.187 583.012 423.12C584.612 424.053 585.866 425.373 586.773 427.08C587.679 428.76 588.133 430.72 588.133 432.96C588.133 435.173 587.679 437.147 586.773 438.88C585.866 440.613 584.612 441.96 583.012 442.92C581.439 443.88 579.679 444.36 577.733 444.36C575.866 444.36 574.213 443.947 572.773 443.12C571.359 442.267 570.279 441.213 569.533 439.96V454.4H565.893V422.08H569.533V426.12ZM584.413 432.96C584.413 431.307 584.079 429.867 583.413 428.64C582.746 427.413 581.839 426.48 580.693 425.84C579.573 425.2 578.333 424.88 576.973 424.88C575.639 424.88 574.399 425.213 573.253 425.88C572.133 426.52 571.226 427.467 570.533 428.72C569.866 429.947 569.533 431.373 569.533 433C569.533 434.653 569.866 436.107 570.533 437.36C571.226 438.587 572.133 439.533 573.253 440.2C574.399 440.84 575.639 441.16 576.973 441.16C578.333 441.16 579.573 440.84 580.693 440.2C581.839 439.533 582.746 438.587 583.413 437.36C584.079 436.107 584.413 434.64 584.413 432.96ZM596.564 425.64C597.204 424.387 598.11 423.413 599.284 422.72C600.484 422.027 601.937 421.68 603.644 421.68V425.44H602.684C598.604 425.44 596.564 427.653 596.564 432.08V444H592.924V422.08H596.564V425.64ZM617.406 444.36C615.352 444.36 613.486 443.893 611.806 442.96C610.152 442.027 608.846 440.707 607.886 439C606.952 437.267 606.486 435.267 606.486 433C606.486 430.76 606.966 428.787 607.926 427.08C608.912 425.347 610.246 424.027 611.926 423.12C613.606 422.187 615.486 421.72 617.566 421.72C619.646 421.72 621.526 422.187 623.206 423.12C624.886 424.027 626.206 425.333 627.166 427.04C628.152 428.747 628.646 430.733 628.646 433C628.646 435.267 628.139 437.267 627.126 439C626.139 440.707 624.792 442.027 623.086 442.96C621.379 443.893 619.486 444.36 617.406 444.36ZM617.406 441.16C618.712 441.16 619.939 440.853 621.086 440.24C622.232 439.627 623.152 438.707 623.846 437.48C624.566 436.253 624.926 434.76 624.926 433C624.926 431.24 624.579 429.747 623.886 428.52C623.192 427.293 622.286 426.387 621.166 425.8C620.046 425.187 618.832 424.88 617.526 424.88C616.192 424.88 614.966 425.187 613.846 425.8C612.752 426.387 611.872 427.293 611.206 428.52C610.539 429.747 610.206 431.24 610.206 433C610.206 434.787 610.526 436.293 611.166 437.52C611.832 438.747 612.712 439.667 613.806 440.28C614.899 440.867 616.099 441.16 617.406 441.16ZM635.392 418.52C634.698 418.52 634.112 418.28 633.632 417.8C633.178 417.32 632.952 416.733 632.952 416.04C632.952 415.347 633.178 414.76 633.632 414.28C634.112 413.8 634.698 413.56 635.392 413.56C636.085 413.56 636.658 413.8 637.112 414.28C637.592 414.76 637.832 415.347 637.832 416.04C637.832 416.733 637.592 417.32 637.112 417.8C636.658 418.28 636.085 418.52 635.392 418.52ZM637.192 448.76C637.192 450.707 636.698 452.133 635.712 453.04C634.725 453.947 633.285 454.4 631.392 454.4H629.272V451.32H630.792C631.805 451.32 632.512 451.12 632.912 450.72C633.338 450.32 633.552 449.64 633.552 448.68V422.08H637.192V448.76ZM663.353 432.2C663.353 432.893 663.313 433.627 663.233 434.4H645.713C645.847 436.56 646.58 438.253 647.913 439.48C649.273 440.68 650.913 441.28 652.833 441.28C654.407 441.28 655.713 440.92 656.753 440.2C657.82 439.453 658.567 438.467 658.993 437.24H662.913C662.327 439.347 661.153 441.067 659.393 442.4C657.633 443.707 655.447 444.36 652.833 444.36C650.753 444.36 648.887 443.893 647.233 442.96C645.607 442.027 644.327 440.707 643.393 439C642.46 437.267 641.993 435.267 641.993 433C641.993 430.733 642.447 428.747 643.353 427.04C644.26 425.333 645.527 424.027 647.153 423.12C648.807 422.187 650.7 421.72 652.833 421.72C654.913 421.72 656.753 422.173 658.353 423.08C659.953 423.987 661.18 425.24 662.033 426.84C662.913 428.413 663.353 430.2 663.353 432.2ZM659.593 431.44C659.593 430.053 659.287 428.867 658.673 427.88C658.06 426.867 657.22 426.107 656.153 425.6C655.113 425.067 653.953 424.8 652.673 424.8C650.833 424.8 649.26 425.387 647.953 426.56C646.673 427.733 645.94 429.36 645.753 431.44H659.593ZM666.798 433C666.798 430.733 667.251 428.76 668.158 427.08C669.065 425.373 670.318 424.053 671.918 423.12C673.545 422.187 675.398 421.72 677.478 421.72C680.171 421.72 682.385 422.373 684.118 423.68C685.878 424.987 687.038 426.8 687.598 429.12H683.678C683.305 427.787 682.571 426.733 681.478 425.96C680.411 425.187 679.078 424.8 677.478 424.8C675.398 424.8 673.718 425.52 672.438 426.96C671.158 428.373 670.518 430.387 670.518 433C670.518 435.64 671.158 437.68 672.438 439.12C673.718 440.56 675.398 441.28 677.478 441.28C679.078 441.28 680.411 440.907 681.478 440.16C682.545 439.413 683.278 438.347 683.678 436.96H687.598C687.011 439.2 685.838 441 684.078 442.36C682.318 443.693 680.118 444.36 677.478 444.36C675.398 444.36 673.545 443.893 671.918 442.96C670.318 442.027 669.065 440.707 668.158 439C667.251 437.293 666.798 435.293 666.798 433ZM696.895 425.08V438C696.895 439.067 697.122 439.827 697.575 440.28C698.028 440.707 698.815 440.92 699.935 440.92H702.615V444H699.335C697.308 444 695.788 443.533 694.775 442.6C693.762 441.667 693.255 440.133 693.255 438V425.08H690.415V422.08H693.255V416.56H696.895V422.08H702.615V425.08H696.895ZM714.785 444.36C713.105 444.36 711.599 444.08 710.265 443.52C708.932 442.933 707.879 442.133 707.105 441.12C706.332 440.08 705.905 438.893 705.825 437.56H709.585C709.692 438.653 710.199 439.547 711.105 440.24C712.039 440.933 713.252 441.28 714.745 441.28C716.132 441.28 717.225 440.973 718.025 440.36C718.825 439.747 719.225 438.973 719.225 438.04C719.225 437.08 718.799 436.373 717.945 435.92C717.092 435.44 715.772 434.973 713.985 434.52C712.359 434.093 711.025 433.667 709.985 433.24C708.972 432.787 708.092 432.133 707.345 431.28C706.625 430.4 706.265 429.253 706.265 427.84C706.265 426.72 706.599 425.693 707.265 424.76C707.932 423.827 708.879 423.093 710.105 422.56C711.332 422 712.732 421.72 714.305 421.72C716.732 421.72 718.692 422.333 720.185 423.56C721.679 424.787 722.479 426.467 722.585 428.6H718.945C718.865 427.453 718.399 426.533 717.545 425.84C716.719 425.147 715.599 424.8 714.185 424.8C712.879 424.8 711.839 425.08 711.065 425.64C710.292 426.2 709.905 426.933 709.905 427.84C709.905 428.56 710.132 429.16 710.585 429.64C711.065 430.093 711.652 430.467 712.345 430.76C713.065 431.027 714.052 431.333 715.305 431.68C716.879 432.107 718.159 432.533 719.145 432.96C720.132 433.36 720.972 433.973 721.665 434.8C722.385 435.627 722.759 436.707 722.785 438.04C722.785 439.24 722.452 440.32 721.785 441.28C721.119 442.24 720.172 443 718.945 443.56C717.745 444.093 716.359 444.36 714.785 444.36ZM741.524 406.32L730.564 450.8H726.964L737.884 406.32H741.524ZM773.307 421.68C775.014 421.68 776.534 422.04 777.867 422.76C779.201 423.453 780.254 424.507 781.027 425.92C781.801 427.333 782.187 429.053 782.187 431.08V444H778.587V431.6C778.587 429.413 778.041 427.747 776.947 426.6C775.881 425.427 774.427 424.84 772.587 424.84C770.694 424.84 769.187 425.453 768.067 426.68C766.947 427.88 766.387 429.627 766.387 431.92V444H762.787V431.6C762.787 429.413 762.241 427.747 761.147 426.6C760.081 425.427 758.627 424.84 756.787 424.84C754.894 424.84 753.387 425.453 752.267 426.68C751.147 427.88 750.587 429.627 750.587 431.92V444H746.947V422.08H750.587V425.24C751.307 424.093 752.267 423.213 753.467 422.6C754.694 421.987 756.041 421.68 757.507 421.68C759.347 421.68 760.974 422.093 762.387 422.92C763.801 423.747 764.854 424.96 765.547 426.56C766.161 425.013 767.174 423.813 768.587 422.96C770.001 422.107 771.574 421.68 773.307 421.68ZM797.718 444.36C795.665 444.36 793.798 443.893 792.118 442.96C790.465 442.027 789.158 440.707 788.198 439C787.265 437.267 786.798 435.267 786.798 433C786.798 430.76 787.278 428.787 788.238 427.08C789.225 425.347 790.558 424.027 792.238 423.12C793.918 422.187 795.798 421.72 797.878 421.72C799.958 421.72 801.838 422.187 803.518 423.12C805.198 424.027 806.518 425.333 807.478 427.04C808.465 428.747 808.958 430.733 808.958 433C808.958 435.267 808.451 437.267 807.438 439C806.451 440.707 805.105 442.027 803.398 442.96C801.691 443.893 799.798 444.36 797.718 444.36ZM797.718 441.16C799.025 441.16 800.251 440.853 801.398 440.24C802.545 439.627 803.465 438.707 804.158 437.48C804.878 436.253 805.238 434.76 805.238 433C805.238 431.24 804.891 429.747 804.198 428.52C803.505 427.293 802.598 426.387 801.478 425.8C800.358 425.187 799.145 424.88 797.838 424.88C796.505 424.88 795.278 425.187 794.158 425.8C793.065 426.387 792.185 427.293 791.518 428.52C790.851 429.747 790.518 431.24 790.518 433C790.518 434.787 790.838 436.293 791.478 437.52C792.145 438.747 793.025 439.667 794.118 440.28C795.211 440.867 796.411 441.16 797.718 441.16ZM812.384 432.96C812.384 430.72 812.837 428.76 813.744 427.08C814.651 425.373 815.891 424.053 817.464 423.12C819.064 422.187 820.851 421.72 822.824 421.72C824.531 421.72 826.117 422.12 827.584 422.92C829.051 423.693 830.171 424.72 830.944 426V414.4H834.624V444H830.944V439.88C830.224 441.187 829.157 442.267 827.744 443.12C826.331 443.947 824.677 444.36 822.784 444.36C820.837 444.36 819.064 443.88 817.464 442.92C815.891 441.96 814.651 440.613 813.744 438.88C812.837 437.147 812.384 435.173 812.384 432.96ZM830.944 433C830.944 431.347 830.611 429.907 829.944 428.68C829.277 427.453 828.371 426.52 827.224 425.88C826.104 425.213 824.864 424.88 823.504 424.88C822.144 424.88 820.904 425.2 819.784 425.84C818.664 426.48 817.771 427.413 817.104 428.64C816.437 429.867 816.104 431.307 816.104 432.96C816.104 434.64 816.437 436.107 817.104 437.36C817.771 438.587 818.664 439.533 819.784 440.2C820.904 440.84 822.144 441.16 823.504 441.16C824.864 441.16 826.104 440.84 827.224 440.2C828.371 439.533 829.277 438.587 829.944 437.36C830.611 436.107 830.944 434.653 830.944 433ZM860.215 422.08V444H856.575V440.76C855.882 441.88 854.909 442.76 853.655 443.4C852.429 444.013 851.069 444.32 849.575 444.32C847.869 444.32 846.335 443.973 844.975 443.28C843.615 442.56 842.535 441.493 841.735 440.08C840.962 438.667 840.575 436.947 840.575 434.92V422.08H844.175V434.44C844.175 436.6 844.722 438.267 845.815 439.44C846.909 440.587 848.402 441.16 850.295 441.16C852.242 441.16 853.775 440.56 854.895 439.36C856.015 438.16 856.575 436.413 856.575 434.12V422.08H860.215ZM870.001 414.4V444H866.361V414.4H870.001ZM896.205 432.2C896.205 432.893 896.165 433.627 896.085 434.4H878.565C878.698 436.56 879.432 438.253 880.765 439.48C882.125 440.68 883.765 441.28 885.685 441.28C887.258 441.28 888.565 440.92 889.605 440.2C890.672 439.453 891.418 438.467 891.845 437.24H895.765C895.178 439.347 894.005 441.067 892.245 442.4C890.485 443.707 888.298 444.36 885.685 444.36C883.605 444.36 881.738 443.893 880.085 442.96C878.458 442.027 877.178 440.707 876.245 439C875.312 437.267 874.845 435.267 874.845 433C874.845 430.733 875.298 428.747 876.205 427.04C877.112 425.333 878.378 424.027 880.005 423.12C881.658 422.187 883.552 421.72 885.685 421.72C887.765 421.72 889.605 422.173 891.205 423.08C892.805 423.987 894.032 425.24 894.885 426.84C895.765 428.413 896.205 430.2 896.205 432.2ZM892.445 431.44C892.445 430.053 892.138 428.867 891.525 427.88C890.912 426.867 890.072 426.107 889.005 425.6C887.965 425.067 886.805 424.8 885.525 424.8C883.685 424.8 882.112 425.387 880.805 426.56C879.525 427.733 878.792 429.36 878.605 431.44H892.445ZM908.77 444.36C907.09 444.36 905.583 444.08 904.25 443.52C902.916 442.933 901.863 442.133 901.09 441.12C900.316 440.08 899.89 438.893 899.81 437.56H903.57C903.676 438.653 904.183 439.547 905.09 440.24C906.023 440.933 907.236 441.28 908.73 441.28C910.116 441.28 911.21 440.973 912.01 440.36C912.81 439.747 913.21 438.973 913.21 438.04C913.21 437.08 912.783 436.373 911.93 435.92C911.076 435.44 909.756 434.973 907.97 434.52C906.343 434.093 905.01 433.667 903.97 433.24C902.956 432.787 902.076 432.133 901.33 431.28C900.61 430.4 900.25 429.253 900.25 427.84C900.25 426.72 900.583 425.693 901.25 424.76C901.916 423.827 902.863 423.093 904.09 422.56C905.316 422 906.716 421.72 908.29 421.72C910.716 421.72 912.676 422.333 914.17 423.56C915.663 424.787 916.463 426.467 916.57 428.6H912.93C912.85 427.453 912.383 426.533 911.53 425.84C910.703 425.147 909.583 424.8 908.17 424.8C906.863 424.8 905.823 425.08 905.05 425.64C904.276 426.2 903.89 426.933 903.89 427.84C903.89 428.56 904.116 429.16 904.57 429.64C905.05 430.093 905.636 430.467 906.33 430.76C907.05 431.027 908.036 431.333 909.29 431.68C910.863 432.107 912.143 432.533 913.13 432.96C914.116 433.36 914.956 433.973 915.65 434.8C916.37 435.627 916.743 436.707 916.77 438.04C916.77 439.24 916.436 440.32 915.77 441.28C915.103 442.24 914.156 443 912.93 443.56C911.73 444.093 910.343 444.36 908.77 444.36Z" fill="white"/>
</g>
<path d="M92.1654 65.9741L89.633 70.5876L80.9722 54.8057L54.3852 103.247H72.3864C72.3864 105.795 74.3497 107.861 76.7716 107.861H54.3852C52.8187 107.861 51.3713 106.981 50.5882 105.554C49.805 104.126 49.8051 102.368 50.5884 100.94L77.1754 52.499C77.9587 51.0715 79.4064 50.1921 80.9732 50.1921C82.5399 50.1921 83.9876 51.0715 84.7709 52.499L92.1654 65.9741Z" fill="#00C58E"/>
<path d="M111.358 100.94L94.6978 70.5876L92.1654 65.9742L89.6329 70.5876L72.9747 100.94C72.1914 102.368 72.1914 104.126 72.9745 105.554C73.7576 106.981 75.205 107.861 76.7716 107.861H107.556C109.122 107.861 110.57 106.982 111.354 105.554C112.138 104.127 112.138 102.368 111.354 100.94H111.358ZM76.7715 103.247L92.1654 75.2011L107.556 103.247H76.7716L76.7715 103.247Z" fill="white"/>
<path d="M123.269 105.554C122.486 106.981 121.039 107.861 119.472 107.861H107.556C109.977 107.861 111.941 105.795 111.941 103.247H119.463L98.1183 64.3537L94.6978 70.5876L92.1654 65.9742L94.3214 62.0469C95.1048 60.6194 96.5525 59.7401 98.1192 59.7401C99.6859 59.7401 101.134 60.6194 101.917 62.0469L123.269 100.94C124.052 102.368 124.052 104.126 123.269 105.554Z" fill="#108775"/>
<path d="M429.007 301V271.24H435.787L436.387 276.28C437.307 274.52 438.627 273.12 440.347 272.08C442.107 271.04 444.167 270.52 446.527 270.52C450.207 270.52 453.067 271.68 455.107 274C457.147 276.32 458.167 279.72 458.167 284.2V301H450.487V284.92C450.487 282.36 449.967 280.4 448.927 279.04C447.887 277.68 446.267 277 444.067 277C441.907 277 440.127 277.76 438.727 279.28C437.367 280.8 436.687 282.92 436.687 285.64V301H429.007ZM476.671 301.72C472.951 301.72 470.071 300.56 468.031 298.24C466.031 295.92 465.031 292.52 465.031 288.04V271.24H472.651V287.32C472.651 289.88 473.171 291.84 474.211 293.2C475.251 294.56 476.891 295.24 479.131 295.24C481.251 295.24 482.991 294.48 484.351 292.96C485.751 291.44 486.451 289.32 486.451 286.6V271.24H494.131V301H487.351L486.751 295.96C485.831 297.72 484.491 299.12 482.731 300.16C481.011 301.2 478.991 301.72 476.671 301.72ZM499.195 301L509.995 286.12L499.195 271.24H507.415L514.975 281.8L522.475 271.24H530.755L519.895 286.12L530.755 301H522.475L514.975 290.44L507.415 301H499.195ZM548.908 301C545.788 301 543.288 300.24 541.408 298.72C539.528 297.2 538.588 294.5 538.588 290.62V277.66H533.488V271.24H538.588L539.488 263.26H546.268V271.24H554.308V277.66H546.268V290.68C546.268 292.12 546.568 293.12 547.168 293.68C547.808 294.2 548.888 294.46 550.408 294.46H554.128V301H548.908ZM558.382 307.66L573.382 254.38H580.882L565.822 307.66H558.382Z" fill="white"/>
<path d="M599.416 301C596.296 301 593.796 300.24 591.916 298.72C590.036 297.2 589.096 294.5 589.096 290.62V277.66H583.996V271.24H589.096L589.996 263.26H596.776V271.24H604.816V277.66H596.776V290.68C596.776 292.12 597.076 293.12 597.676 293.68C598.316 294.2 599.396 294.46 600.916 294.46H604.636V301H599.416ZM625.108 301.72C622.108 301.72 619.448 301.08 617.128 299.8C614.808 298.52 612.988 296.72 611.668 294.4C610.348 292.08 609.688 289.4 609.688 286.36C609.688 283.28 610.328 280.54 611.608 278.14C612.928 275.74 614.728 273.88 617.008 272.56C619.328 271.2 622.048 270.52 625.168 270.52C628.088 270.52 630.668 271.16 632.908 272.44C635.148 273.72 636.888 275.48 638.128 277.72C639.408 279.92 640.048 282.38 640.048 285.1C640.048 285.54 640.028 286 639.988 286.48C639.988 286.96 639.968 287.46 639.928 287.98H617.308C617.468 290.3 618.268 292.12 619.708 293.44C621.188 294.76 622.968 295.42 625.048 295.42C626.608 295.42 627.908 295.08 628.948 294.4C630.028 293.68 630.828 292.76 631.348 291.64H639.148C638.588 293.52 637.648 295.24 636.328 296.8C635.048 298.32 633.448 299.52 631.528 300.4C629.648 301.28 627.508 301.72 625.108 301.72ZM625.168 276.76C623.288 276.76 621.628 277.3 620.188 278.38C618.748 279.42 617.828 281.02 617.428 283.18H632.248C632.128 281.22 631.408 279.66 630.088 278.5C628.768 277.34 627.128 276.76 625.168 276.76ZM658.807 301.72C656.167 301.72 653.847 301.3 651.847 300.46C649.847 299.58 648.247 298.38 647.047 296.86C645.847 295.34 645.127 293.58 644.887 291.58H652.627C652.867 292.74 653.507 293.74 654.547 294.58C655.627 295.38 657.007 295.78 658.687 295.78C660.367 295.78 661.587 295.44 662.347 294.76C663.147 294.08 663.547 293.3 663.547 292.42C663.547 291.14 662.987 290.28 661.867 289.84C660.747 289.36 659.187 288.9 657.187 288.46C655.907 288.18 654.607 287.84 653.287 287.44C651.967 287.04 650.747 286.54 649.627 285.94C648.547 285.3 647.667 284.5 646.987 283.54C646.307 282.54 645.967 281.32 645.967 279.88C645.967 277.24 647.007 275.02 649.087 273.22C651.207 271.42 654.167 270.52 657.967 270.52C661.487 270.52 664.287 271.34 666.367 272.98C668.487 274.62 669.747 276.88 670.147 279.76H662.887C662.447 277.56 660.787 276.46 657.907 276.46C656.467 276.46 655.347 276.74 654.547 277.3C653.787 277.86 653.407 278.56 653.407 279.4C653.407 280.28 653.987 280.98 655.147 281.5C656.307 282.02 657.847 282.5 659.767 282.94C661.847 283.42 663.747 283.96 665.467 284.56C667.227 285.12 668.627 285.98 669.667 287.14C670.707 288.26 671.227 289.88 671.227 292C671.267 293.84 670.787 295.5 669.787 296.98C668.787 298.46 667.347 299.62 665.467 300.46C663.587 301.3 661.367 301.72 658.807 301.72ZM690.353 301C687.233 301 684.733 300.24 682.853 298.72C680.973 297.2 680.033 294.5 680.033 290.62V277.66H674.933V271.24H680.033L680.933 263.26H687.713V271.24H695.753V277.66H687.713V290.68C687.713 292.12 688.013 293.12 688.613 293.68C689.253 294.2 690.333 294.46 691.853 294.46H695.573V301H690.353ZM701.687 286.84V280.42H726.827V286.84H701.687ZM745.148 301.72C741.428 301.72 738.548 300.56 736.508 298.24C734.508 295.92 733.508 292.52 733.508 288.04V271.24H741.128V287.32C741.128 289.88 741.648 291.84 742.688 293.2C743.728 294.56 745.368 295.24 747.608 295.24C749.728 295.24 751.468 294.48 752.828 292.96C754.228 291.44 754.928 289.32 754.928 286.6V271.24H762.608V301H755.828L755.228 295.96C754.308 297.72 752.968 299.12 751.208 300.16C749.488 301.2 747.468 301.72 745.148 301.72ZM783.752 301C780.632 301 778.132 300.24 776.252 298.72C774.372 297.2 773.432 294.5 773.432 290.62V277.66H768.332V271.24H773.432L774.332 263.26H781.112V271.24H789.152V277.66H781.112V290.68C781.112 292.12 781.412 293.12 782.012 293.68C782.652 294.2 783.732 294.46 785.252 294.46H788.972V301H783.752ZM799.886 266.62C798.486 266.62 797.326 266.2 796.406 265.36C795.526 264.52 795.086 263.46 795.086 262.18C795.086 260.9 795.526 259.86 796.406 259.06C797.326 258.22 798.486 257.8 799.886 257.8C801.286 257.8 802.426 258.22 803.306 259.06C804.226 259.86 804.686 260.9 804.686 262.18C804.686 263.46 804.226 264.52 803.306 265.36C802.426 266.2 801.286 266.62 799.886 266.62ZM796.046 301V271.24H803.726V301H796.046ZM811.742 301V257.8H819.422V301H811.742ZM839.569 301.72C836.929 301.72 834.609 301.3 832.609 300.46C830.609 299.58 829.009 298.38 827.809 296.86C826.609 295.34 825.889 293.58 825.649 291.58H833.389C833.629 292.74 834.269 293.74 835.309 294.58C836.389 295.38 837.769 295.78 839.449 295.78C841.129 295.78 842.349 295.44 843.109 294.76C843.909 294.08 844.309 293.3 844.309 292.42C844.309 291.14 843.749 290.28 842.629 289.84C841.509 289.36 839.949 288.9 837.949 288.46C836.669 288.18 835.369 287.84 834.049 287.44C832.729 287.04 831.509 286.54 830.389 285.94C829.309 285.3 828.429 284.5 827.749 283.54C827.069 282.54 826.729 281.32 826.729 279.88C826.729 277.24 827.769 275.02 829.849 273.22C831.969 271.42 834.929 270.52 838.729 270.52C842.249 270.52 845.049 271.34 847.129 272.98C849.249 274.62 850.509 276.88 850.909 279.76H843.649C843.209 277.56 841.549 276.46 838.669 276.46C837.229 276.46 836.109 276.74 835.309 277.3C834.549 277.86 834.169 278.56 834.169 279.4C834.169 280.28 834.749 280.98 835.909 281.5C837.069 282.02 838.609 282.5 840.529 282.94C842.609 283.42 844.509 283.96 846.229 284.56C847.989 285.12 849.389 285.98 850.429 287.14C851.469 288.26 851.989 289.88 851.989 292C852.029 293.84 851.549 295.5 850.549 296.98C849.549 298.46 848.109 299.62 846.229 300.46C844.349 301.3 842.129 301.72 839.569 301.72Z" fill="#00DC82"/>
<path d="M1198.17 547.974L1195.63 552.588L1186.97 536.806L1160.39 585.247H1178.39C1178.39 587.795 1180.35 589.861 1182.77 589.861H1160.39C1158.82 589.861 1157.37 588.981 1156.59 587.553C1155.81 586.126 1155.81 584.368 1156.59 582.94L1183.18 534.499C1183.96 533.071 1185.41 532.192 1186.97 532.192C1188.54 532.192 1189.99 533.071 1190.77 534.499L1198.17 547.974Z" fill="#00C58E"/>
<path d="M1217.36 582.94L1200.7 552.588L1198.17 547.974L1195.63 552.588L1178.97 582.94C1178.19 584.368 1178.19 586.126 1178.97 587.553C1179.76 588.981 1181.21 589.861 1182.77 589.861H1213.56C1215.12 589.861 1216.57 588.982 1217.35 587.554C1218.14 586.127 1218.14 584.368 1217.35 582.94H1217.36ZM1182.77 585.247L1198.17 557.201L1213.56 585.247H1182.77L1182.77 585.247Z" fill="white"/>
<path d="M1229.27 587.554C1228.49 588.981 1227.04 589.861 1225.47 589.861H1213.56C1215.98 589.861 1217.94 587.795 1217.94 585.247H1225.46L1204.12 546.354L1200.7 552.588L1198.17 547.974L1200.32 544.047C1201.1 542.619 1202.55 541.74 1204.12 541.74C1205.69 541.74 1207.13 542.619 1207.92 544.047L1229.27 582.94C1230.05 584.368 1230.05 586.126 1229.27 587.554Z" fill="#108775"/>
<rect width="34.722" height="50.4729" rx="4.74837" transform="matrix(0.845748 -0.533583 0 1 50 539.527)" fill="#108775"/>
<rect width="28.7449" height="48.4688" rx="4.74837" transform="matrix(0.845748 -0.533583 0 1 58.8059 541.515)" fill="#019982"/>
<g filter="url(#filter1_d)">
<rect width="26.2135" height="44.2006" rx="4.74837" transform="matrix(0.845748 -0.533583 0 1 67.9901 545.015)" fill="#41B38A"/>
</g>
<rect width="34.722" height="50.4729" rx="4.74837" transform="matrix(0.845748 -0.533583 0 1 1190 68.5271)" fill="#108775"/>
<rect width="28.7449" height="48.4688" rx="4.74837" transform="matrix(0.845748 -0.533583 0 1 1198.81 70.5145)" fill="#019982"/>
<g filter="url(#filter2_d)">
<rect width="26.2135" height="44.2006" rx="4.74837" transform="matrix(0.845748 -0.533583 0 1 1207.99 74.0146)" fill="#41B38A"/>
</g>
<defs>
<filter id="filter0_i" x="362.092" y="353.56" width="554.678" height="104.84" filterUnits="userSpaceOnUse" color-interpolation-filters="sRGB">
<feFlood flood-opacity="0" result="BackgroundImageFix"/>
<feBlend mode="normal" in="SourceGraphic" in2="BackgroundImageFix" result="shape"/>
<feColorMatrix in="SourceAlpha" type="matrix" values="0 0 0 0 0 0 0 0 0 0 0 0 0 0 0 0 0 0 127 0" result="hardAlpha"/>
<feOffset dy="4"/>
<feGaussianBlur stdDeviation="2"/>
<feComposite in2="hardAlpha" operator="arithmetic" k2="-1" k3="1"/>
<feColorMatrix type="matrix" values="0 0 0 0 0 0 0 0 0 0 0 0 0 0 0 0 0 0 0.15 0"/>
<feBlend mode="normal" in2="shape" result="effect1_innerShadow"/>
</filter>
<filter id="filter1_d" x="59.85" y="527.5" width="33.0235" height="65.2433" filterUnits="userSpaceOnUse" color-interpolation-filters="sRGB">
<feFlood flood-opacity="0" result="BackgroundImageFix"/>
<feColorMatrix in="SourceAlpha" type="matrix" values="0 0 0 0 0 0 0 0 0 0 0 0 0 0 0 0 0 0 127 0"/>
<feOffset dx="-2.71335"/>
<feGaussianBlur stdDeviation="2.71335"/>
<feColorMatrix type="matrix" values="0 0 0 0 0 0 0 0 0 0 0 0 0 0 0 0 0 0 0.02 0"/>
<feBlend mode="normal" in2="BackgroundImageFix" result="effect1_dropShadow"/>
<feBlend mode="normal" in="SourceGraphic" in2="effect1_dropShadow" result="shape"/>
</filter>
<filter id="filter2_d" x="1199.85" y="56.4997" width="33.0235" height="65.2433" filterUnits="userSpaceOnUse" color-interpolation-filters="sRGB">
<feFlood flood-opacity="0" result="BackgroundImageFix"/>
<feColorMatrix in="SourceAlpha" type="matrix" values="0 0 0 0 0 0 0 0 0 0 0 0 0 0 0 0 0 0 127 0"/>
<feOffset dx="-2.71335"/>
<feGaussianBlur stdDeviation="2.71335"/>
<feColorMatrix type="matrix" values="0 0 0 0 0 0 0 0 0 0 0 0 0 0 0 0 0 0 0.02 0"/>
<feBlend mode="normal" in2="BackgroundImageFix" result="effect1_dropShadow"/>
<feBlend mode="normal" in="SourceGraphic" in2="effect1_dropShadow" result="shape"/>
</filter>
</defs>
</svg>
